<svg width="137" height="48" viewBox="0 0 137 48" fill="none" class="sc-1ale9kf-0 fDnQMB"><g clip-path="url(#clipBetaLogo)"><path d="M0 4V34.6011H7.89534V25.4207H11.9974C15.114 25.4207 17.7311 24.4152 19.8487 22.4043C21.9659 20.3935 23.0245 17.8288 23.0246 14.7104C23.0246 11.5922 21.966 9.02753 19.8487 7.0164C17.7315 5.00528 15.1144 3.99981 11.9974 4H0ZM7.89534 17.989V11.4755H11.9974C12.4098 11.4659 12.8199 11.5404 13.2028 11.6944C13.5857 11.8484 13.9335 12.0788 14.225 12.3715C14.5276 12.6783 14.764 13.0443 14.9195 13.4467C15.0751 13.849 15.1464 14.2792 15.1291 14.7104C15.1451 15.1447 15.0732 15.5777 14.9178 15.9834C14.7625 16.3892 14.5268 16.7591 14.225 17.071C13.9367 17.3696 13.5901 17.6053 13.2068 17.7633C12.8235 17.9212 12.4117 17.9981 11.9974 17.989H7.89534Z" fill="#F84443"></path><path fill-rule="evenodd" clip-rule="evenodd" d="M135.773 38.3824C135.168 39.6684 134.251 40.781 133.104 41.6175C131.986 42.419 130.741 43.025 129.421 43.4098C128.038 43.8096 126.604 44.0083 125.165 44C122.724 44 120.547 43.5482 118.637 42.6448C116.808 41.8176 115.292 40.4229 114.314 38.6665L114.346 38.6484C113.994 37.8603 113.948 36.969 114.217 36.1487C114.485 35.3283 115.05 34.638 115.799 34.2124C116.549 33.7822 117.431 33.6426 118.277 33.8201C119.123 33.9976 119.875 34.4798 120.39 35.1756L120.401 35.1694C121.46 36.8306 123.018 37.6612 125.076 37.6612C126.4 37.6612 127.473 37.326 128.296 36.6557C129.119 35.9849 129.531 35.0086 129.531 33.7267V31.6284C128.032 33.4357 125.973 34.3391 123.356 34.3387C120.327 34.3387 117.82 33.2604 115.836 31.1038C113.851 28.9472 112.858 26.3243 112.858 23.2349C112.858 20.1461 113.851 17.5231 115.836 15.3661C117.821 13.2096 120.327 12.1313 123.356 12.131C125.973 12.131 128.032 13.0345 129.531 14.8415V12.7433H136.765V33.7267C136.796 35.3345 136.456 36.9277 135.773 38.3824ZM124.785 19.1807C123.896 19.1896 123.031 19.4618 122.297 19.9631C121.563 20.4643 120.993 21.1721 120.659 21.9974C120.325 22.8228 120.243 23.7286 120.421 24.601C120.6 25.4734 121.032 26.2732 121.663 26.8998C122.294 27.5263 123.096 27.9516 123.968 28.1221C124.84 28.2926 125.742 28.2006 126.562 27.8577C127.382 27.5149 128.082 26.9365 128.574 26.1954C129.067 25.4543 129.33 24.5836 129.33 23.693C129.323 22.4903 128.841 21.3393 127.989 20.4931C127.137 19.6468 125.984 19.1748 124.785 19.1807Z" fill="#F84443"></path><path d="M110.271 15.5365C108.031 13.3175 105.294 12.2081 102.059 12.2082C98.8519 12.2082 96.1219 13.3177 93.8686 15.5366C91.6152 17.7557 90.4884 20.475 90.4884 23.6946C90.4884 26.9145 91.6152 29.6338 93.8686 31.8527C96.122 34.0716 98.852 35.1811 102.059 35.1812C105.294 35.1812 108.031 34.0717 110.271 31.8527C112.509 29.6338 113.628 26.9144 113.629 23.6946C113.629 20.475 112.51 17.7556 110.271 15.5366V15.5365ZM102.259 28.2041C101.371 28.1943 100.506 27.9214 99.7725 27.4196C99.0389 26.9178 98.4698 26.2096 98.1368 25.3842C97.8038 24.5588 97.7217 23.653 97.9009 22.7809C98.0802 21.9089 98.5127 21.1094 99.144 20.4833C99.7753 19.8572 100.577 19.4323 101.449 19.2622C102.32 19.0921 103.223 19.1844 104.042 19.5274C104.862 19.8704 105.561 20.4488 106.054 21.1899C106.546 21.9309 106.809 22.8014 106.809 23.6918C106.802 24.8952 106.319 26.0466 105.466 26.8928C104.613 27.739 103.459 28.2107 102.259 28.2041Z" fill="#F84443"></path><path d="M83.4923 4V14.7541C81.9926 13.0055 79.9049 12.1312 77.229 12.1311C74.2881 12.1311 71.8254 13.2313 69.8408 15.4318C67.8559 17.6326 66.8635 20.3794 66.8635 23.6721C66.8635 26.9658 67.856 29.7126 69.8408 31.9126C71.8257 34.1134 74.2884 35.2136 77.229 35.213C79.9045 35.213 81.9923 34.3387 83.4923 32.5901V34.6011H90.8144V4H83.4923ZM78.7152 28.2041C77.8276 28.193 76.9631 27.9189 76.2304 27.4163C75.4978 26.9137 74.9297 26.2051 74.5977 25.3795C74.2657 24.554 74.1846 23.6485 74.3645 22.7768C74.5445 21.9052 74.9775 21.1063 75.6091 20.4809C76.2407 19.8554 77.0427 19.4312 77.9141 19.2616C78.7856 19.0921 79.6875 19.1847 80.5066 19.5279C81.3256 19.8712 82.0252 20.4496 82.5172 21.1905C83.0092 21.9314 83.2717 22.8017 83.2717 23.6918C83.2641 24.896 82.7798 26.0479 81.9253 26.8941C81.0708 27.7403 79.9161 28.2115 78.7152 28.2041Z" fill="#F84443"></path><path d="M64.5607 15.4318C62.5759 13.2316 60.1132 12.1314 57.1727 12.1312C54.4965 12.1312 52.4086 13.0055 50.9091 14.7541V12.7433H43.5871V43.3442H50.9091V32.5901C52.4089 34.3388 54.4967 35.2132 57.1727 35.2131C60.1127 35.2131 62.5754 34.1129 64.5607 31.9126C66.5456 29.7124 67.538 26.9655 67.5381 23.6721C67.5381 20.379 66.5456 17.6322 64.5607 15.4318V15.4318ZM55.5712 28.2041C54.6834 28.1937 53.8186 27.9202 53.0855 27.418C52.3524 26.9158 51.7838 26.2074 51.4513 25.3819C51.1188 24.5564 51.0372 23.6508 51.2168 22.7789C51.3964 21.9071 51.8291 21.1079 52.4606 20.4821C53.092 19.8563 53.894 19.4318 54.7655 19.2619C55.637 19.0921 56.5392 19.1846 57.3584 19.5277C58.1776 19.8708 58.8774 20.4492 59.3695 21.1902C59.8617 21.9312 60.1243 22.8016 60.1242 23.6918C60.1171 24.8956 59.6334 26.0473 58.7796 26.8935C57.9258 27.7397 56.7717 28.2111 55.5712 28.2041Z" fill="#F84443"></path><path d="M40.6474 15.5365C38.4083 13.3175 35.4642 12.2082 32.229 12.2082C29.0222 12.2082 26.2921 13.3177 24.0387 15.5366C21.7854 17.7557 20.6587 20.475 20.6585 23.6946C20.6585 26.9145 21.7852 29.6338 24.0387 31.8527C26.2921 34.0716 29.0222 35.1811 32.229 35.1812C35.4642 35.1812 38.4083 34.0717 40.6474 31.8527C42.8859 29.6338 43.7993 26.9144 43.7993 23.6946C43.7993 20.4749 42.8859 17.7557 40.6474 15.5366V15.5365ZM32.2308 28.2041C31.3426 28.1956 30.4768 27.9238 29.7424 27.4228C29.008 26.9218 28.4378 26.2141 28.1038 25.3888C27.7698 24.5635 27.6867 23.6575 27.8652 22.785C28.0437 21.9125 28.4756 21.1125 29.1067 20.4857C29.7378 19.8589 30.5397 19.4334 31.4115 19.2627C32.2832 19.0921 33.1859 19.184 34.0057 19.5268C34.8255 19.8696 35.5258 20.448 36.0183 21.1892C36.5109 21.9304 36.7737 22.8011 36.7737 23.6918C36.768 24.8943 36.2861 26.0452 35.4341 26.8914C34.5822 27.7376 33.4299 28.2098 32.2308 28.2041Z" fill="#F84443"></path><path d="M116.986 5.65601C117.69 6.07201 118.042 6.70001 118.042 7.54001C118.042 8.28401 117.786 8.88001 117.274 9.32801C116.762 9.77601 116.078 10 115.222 10H111.682V1.60001H114.994C115.834 1.60001 116.506 1.81601 117.01 2.24801C117.514 2.67201 117.766 3.25201 117.766 3.98801C117.766 4.69201 117.506 5.24801 116.986 5.65601ZM114.934 3.52001H113.83V4.84001H114.934C115.126 4.84001 115.286 4.78401 115.414 4.67201C115.55 4.55201 115.618 4.38801 115.618 4.18001C115.618 3.98001 115.554 3.82001 115.426 3.70001C115.298 3.58001 115.134 3.52001 114.934 3.52001ZM115.162 8.08001C115.378 8.08001 115.554 8.01601 115.69 7.88801C115.826 7.75201 115.894 7.58001 115.894 7.37201C115.894 7.15601 115.826 6.98401 115.69 6.85601C115.554 6.72801 115.378 6.66401 115.162 6.66401H113.83V8.08001H115.162Z" fill="#919597"></path><path d="M120.709 7.73201C120.909 8.22001 121.357 8.46401 122.053 8.46401C122.485 8.46401 122.849 8.32401 123.145 8.04401L124.585 9.05201C123.993 9.79601 123.133 10.168 122.005 10.168C120.989 10.168 120.173 9.87201 119.557 9.28001C118.949 8.68001 118.645 7.92401 118.645 7.01201C118.645 6.10801 118.945 5.35201 119.545 4.74401C120.145 4.13601 120.909 3.83201 121.837 3.83201C122.733 3.83201 123.473 4.13201 124.057 4.73201C124.641 5.33201 124.933 6.08401 124.933 6.98801C124.933 7.25201 124.905 7.50001 124.849 7.73201H120.709ZM120.685 6.35201H122.989C122.829 5.79201 122.453 5.51201 121.861 5.51201C121.245 5.51201 120.853 5.79201 120.685 6.35201Z" fill="#919597"></path><path d="M129.357 5.90801H128.109V7.64801C128.109 7.91201 128.205 8.07601 128.397 8.14001C128.589 8.20401 128.909 8.22401 129.357 8.20001V10C128.165 10.144 127.325 10.036 126.837 9.67601C126.357 9.30801 126.117 8.64801 126.117 7.69601V5.90801H125.217V4.00001H126.117V2.92001L128.109 2.32001V4.00001H129.357V5.90801Z" fill="#919597"></path><path d="M134.408 4.00001H136.4V10H134.408V9.44801C134 9.92801 133.432 10.168 132.704 10.168C131.904 10.168 131.232 9.86801 130.688 9.26801C130.152 8.66001 129.884 7.90401 129.884 7.00001C129.884 6.09601 130.152 5.34401 130.688 4.74401C131.232 4.13601 131.904 3.83201 132.704 3.83201C133.432 3.83201 134 4.07201 134.408 4.55201V4.00001ZM132.236 7.94801C132.468 8.18801 132.772 8.30801 133.148 8.30801C133.524 8.30801 133.828 8.18801 134.06 7.94801C134.292 7.70801 134.408 7.39201 134.408 7.00001C134.408 6.60801 134.292 6.29201 134.06 6.05201C133.828 5.81201 133.524 5.69201 133.148 5.69201C132.772 5.69201 132.468 5.81201 132.236 6.05201C132.004 6.29201 131.888 6.60801 131.888 7.00001C131.888 7.39201 132.004 7.70801 132.236 7.94801Z" fill="#919597"></path></g><defs><clipPath id="clipBetaLogo"><path d="M0 0H137V48H0V0Z" fill="white"></path></clipPath></defs></svg>