<svg viewBox="0 0 320 320"><g data-name="Layer 2"><g data-name="Popdog Icon Red"><path d="M160 320A160 160 0 1 0 0 160a160 160 0 0 0 160 160" fill="#f84443"></path><path d="M207.602 193.134a10.921 10.921 0 0 1-12.534-7.38 8.953 8.953 0 0 1 6.505-11.71 10.922 10.922 0 0 1 12.533 7.382 8.951 8.951 0 0 1-6.504 11.708m-70.297-6.171c-3.118 11.196-13.627 18.215-23.474 15.676s-15.3-13.672-12.183-24.87 13.628-18.215 23.474-15.676 15.302 13.673 12.183 24.87m123.252-84.56c-15.709-15.516-50.875 1.833-74.007 24.887a134.312 134.312 0 0 0-26.473-2.423 129.97 129.97 0 0 0-29.929 3.158c-9.562-29.355-29.87-57.343-49.814-52.142-21.523 5.613-23.323 48.592-15.679 77.421 3.426 12.919 8.277 27.728 15.24 39.43-.002.215-.012.427-.012.642 0 29.873 17.99 50.635 42.918 58.277a30.447 30.447 0 0 0 20.297-.947c11.235-4.21 18.495-13.77 7.337-18.723-8.554-3.796-15.565-10.64-15.565-17.567 0-9.324 11.252-14.62 25.141-14.62s25.143 5.296 25.143 14.62c0 7.046-7.291 13.897-16.017 17.734-10.54 4.636-3.286 14.383 7.788 18.525a30.668 30.668 0 0 0 20.633.865c24.662-7.727 42.333-28.413 42.333-58.164a89.296 89.296 0 0 0-1.895-18.781c20.017-21.569 37.714-57.226 22.561-72.193" fill="#fff"></path></g></g></svg>