<svg width="774" height="334" viewBox="0 0 774 334" fill="none" xmlns="http://www.w3.org/2000/svg">
<path d="M650.152 155.483C650.299 152.501 649.023 149.627 646.713 147.737C644.403 145.846 641.333 145.164 638.44 145.897L636.824 146.254L636.338 144.73C635.551 141.824 633.409 139.476 630.586 138.427C627.8 137.35 624.665 137.684 622.168 139.324C618.819 141.497 617.264 145.59 618.327 149.438L623.03 168.096C623.125 168.47 623.367 168.79 623.701 168.983C624.036 169.176 624.434 169.226 624.806 169.121L643.286 163.878C647.162 162.878 649.941 159.48 650.152 155.483Z" fill="#919597"/>
<path d="M417.606 262.9C417.739 260.184 416.577 257.566 414.473 255.844C412.368 254.122 409.572 253.5 406.936 254.168L405.464 254.493L405.022 253.105C404.305 250.457 402.353 248.319 399.782 247.363C397.244 246.382 394.388 246.686 392.113 248.181C389.062 250.159 387.646 253.888 388.614 257.394L392.898 274.39C392.985 274.731 393.205 275.023 393.51 275.198C393.815 275.374 394.177 275.42 394.516 275.324L411.351 270.548C414.881 269.637 417.413 266.541 417.606 262.9Z" fill="#919597"/>
<path d="M741.793 102.495C741.41 100.723 740.21 99.2379 738.559 98.492C736.907 97.746 734.999 97.8278 733.417 98.7126L732.525 99.1755L732.001 98.3581C731.083 96.7771 729.458 95.7368 727.637 95.5649C725.834 95.3707 724.047 96.0591 722.841 97.4133C721.217 99.2136 720.948 101.859 722.176 103.949L727.865 114.154C727.98 114.358 728.172 114.508 728.399 114.569C728.625 114.63 728.867 114.596 729.068 114.476L739.084 108.498C741.2 107.302 742.296 104.873 741.793 102.495Z" fill="#919597"/>
<path d="M436.436 182.825C436.088 181.211 434.994 179.858 433.49 179.178C431.985 178.499 430.247 178.573 428.806 179.379L427.994 179.801L427.516 179.056C426.679 177.616 425.199 176.668 423.541 176.512C421.898 176.335 420.27 176.962 419.171 178.196C417.692 179.836 417.447 182.245 418.566 184.149L423.749 193.445C423.853 193.632 424.028 193.768 424.234 193.824C424.441 193.879 424.661 193.848 424.844 193.739L433.968 188.293C435.896 187.204 436.895 184.991 436.436 182.825Z" fill="#919597"/>
<path d="M555.712 7.16975C554.966 6.11519 553.765 5.47678 552.474 5.44922C551.183 5.42167 549.955 6.00824 549.165 7.03003L548.71 7.58258L548.138 7.19323C547.095 6.41343 545.739 6.18553 544.497 6.58131C543.261 6.9578 542.282 7.908 541.87 9.13277C541.309 10.7663 541.871 12.5752 543.26 13.6022L549.84 18.702C549.972 18.8042 550.14 18.8487 550.305 18.8252C550.47 18.8017 550.619 18.7123 550.718 18.5774L555.613 11.861C556.666 10.4863 556.706 8.58749 555.712 7.16975Z" fill="#919597"/>
<path d="M169.296 184.774C168.617 183.813 167.523 183.232 166.347 183.207C165.17 183.182 164.052 183.716 163.333 184.647L162.918 185.15L162.397 184.795C161.446 184.085 160.211 183.877 159.08 184.238C157.954 184.581 157.063 185.447 156.687 186.562C156.175 188.05 156.688 189.698 157.953 190.634L163.947 195.279C164.067 195.373 164.22 195.413 164.371 195.392C164.522 195.37 164.657 195.289 164.747 195.166L169.206 189.048C170.166 187.795 170.202 186.066 169.296 184.774Z" fill="#919597"/>
<path d="M233.274 61.637C232.791 60.858 231.875 60.4602 230.976 60.6385L222.254 62.3958C221.95 62.4573 221.64 62.3201 221.481 62.0535L216.562 53.8098C216.079 53.0331 215.164 52.6381 214.267 52.8187C213.37 52.9994 212.68 53.7178 212.535 54.621L212.533 54.6454L211.192 64.1263C211.149 64.433 210.917 64.6793 210.614 64.7409L201.888 66.4987C200.983 66.6803 200.289 67.4091 200.151 68.3216C200.014 69.2342 200.462 70.1353 201.274 70.5756L209.943 75.2408C210.209 75.3837 210.359 75.675 210.322 75.9742L209.087 85.9617C208.97 86.9093 209.479 87.8237 210.347 88.2227C211.214 88.6216 212.24 88.4135 212.883 87.708L219.412 80.5473C219.627 80.3119 219.97 80.2428 220.259 80.3767L229.048 84.4498C229.915 84.8532 230.943 84.6489 231.589 83.945C232.235 83.241 232.351 82.1995 231.875 81.3706L226.868 72.6349C226.718 72.3734 226.744 72.0466 226.933 71.812L233.133 64.1421C233.7 63.4191 233.757 62.419 233.274 61.637Z" fill="#919597"/>
<path d="M46.0441 249.15C45.604 248.441 44.77 248.078 43.951 248.241L36.0051 249.841C35.728 249.897 35.4457 249.772 35.3011 249.53L30.8201 242.02C30.3799 241.312 29.5466 240.953 28.7297 241.117C27.9128 241.282 27.2839 241.936 27.152 242.759L27.1497 242.781L25.9284 251.418C25.8891 251.697 25.678 251.922 25.4014 251.978L17.4529 253.579C16.6286 253.744 15.9961 254.408 15.8708 255.24C15.7455 256.071 16.1541 256.892 16.893 257.293L24.791 261.543C25.0328 261.673 25.1698 261.938 25.1361 262.211L24.0105 271.309C23.9039 272.172 24.368 273.005 25.1582 273.369C25.9483 273.732 26.8828 273.543 27.4689 272.9L33.4165 266.377C33.6123 266.162 33.9245 266.099 34.188 266.221L42.1947 269.932C42.9839 270.299 43.9202 270.113 44.509 269.472C45.0978 268.831 45.2034 267.882 44.7701 267.127L40.2084 259.169C40.0717 258.931 40.0953 258.633 40.2679 258.419L45.9156 251.432C46.4325 250.774 46.4837 249.863 46.0441 249.15Z" fill="#919597"/>
<path d="M502.624 257.317C502.733 256.396 502.26 255.503 501.436 255.077L493.425 250.963C493.146 250.82 492.987 250.516 493.03 250.205L494.339 240.578C494.447 239.658 493.973 238.768 493.149 238.345C492.326 237.922 491.326 238.055 490.641 238.679L490.624 238.696L483.58 245.352C483.353 245.568 483.014 245.616 482.735 245.474L474.721 241.358C473.891 240.931 472.881 241.07 472.197 241.705C471.512 242.34 471.298 243.336 471.662 244.197L475.579 253.359C475.698 253.64 475.634 253.965 475.416 254.179L468.135 261.302C467.445 261.978 467.271 263.023 467.706 263.886C468.14 264.749 469.083 265.232 470.037 265.079L479.722 263.533C480.041 263.483 480.356 263.644 480.5 263.933L484.885 272.702C485.316 273.568 486.258 274.055 487.214 273.906C488.169 273.757 488.918 273.006 489.065 272.05L490.615 261.977C490.661 261.675 490.888 261.433 491.186 261.367L500.932 259.21C501.837 258.996 502.513 258.241 502.624 257.317Z" fill="#919597"/>
<path d="M724.319 229.407C724.429 228.486 723.955 227.593 723.131 227.167L715.12 223.053C714.841 222.91 714.682 222.606 714.725 222.295L716.035 212.668C716.143 211.748 715.668 210.858 714.844 210.436C714.021 210.013 713.021 210.145 712.337 210.769L712.319 210.786L705.276 217.442C705.048 217.658 704.709 217.707 704.43 217.564L696.416 213.449C695.586 213.021 694.577 213.16 693.892 213.795C693.207 214.43 692.993 215.426 693.357 216.287L697.274 225.449C697.394 225.73 697.329 226.055 697.111 226.269L689.831 233.392C689.14 234.068 688.966 235.113 689.401 235.976C689.835 236.839 690.778 237.322 691.733 237.169L701.418 235.623C701.736 235.573 702.051 235.734 702.195 236.023L706.58 244.792C707.011 245.658 707.953 246.145 708.909 245.996C709.865 245.847 710.613 245.096 710.76 244.14L712.31 234.067C712.357 233.766 712.583 233.523 712.881 233.457L722.627 231.301C723.532 231.086 724.208 230.331 724.319 229.407Z" fill="#919597"/>
<path d="M716.319 28.4072C716.429 27.4859 715.955 26.5935 715.131 26.1672L707.12 22.0534C706.841 21.9102 706.682 21.6061 706.725 21.2949L708.035 11.6678C708.143 10.7482 707.668 9.85843 706.844 9.4355C706.021 9.01257 705.021 9.14538 704.337 9.76869L704.319 9.78637L697.276 16.4424C697.048 16.658 696.709 16.7065 696.43 16.5637L688.416 12.4486C687.586 12.0212 686.577 12.1598 685.892 12.7951C685.207 13.4304 684.993 14.4264 685.357 15.2866L689.274 24.4492C689.394 24.7298 689.329 25.0552 689.111 25.2686L681.831 32.3919C681.14 33.0678 680.966 34.1129 681.401 34.9759C681.835 35.839 682.778 36.3217 683.733 36.1694L693.418 34.6233C693.736 34.5726 694.051 34.7342 694.195 35.0228L698.58 43.7921C699.011 44.6579 699.953 45.1449 700.909 44.9958C701.865 44.8466 702.613 44.0957 702.76 43.1396L704.31 33.0672C704.357 32.7656 704.583 32.5234 704.881 32.4573L714.627 30.3005C715.532 30.0865 716.208 29.3306 716.319 28.4072Z" fill="#919597"/>
<path d="M479.643 133.967C479.743 133.128 479.311 132.315 478.561 131.926L471.263 128.179C471.009 128.048 470.864 127.771 470.903 127.488L472.096 118.718C472.194 117.88 471.762 117.07 471.012 116.684C470.261 116.299 469.351 116.42 468.727 116.988L468.711 117.004L462.295 123.067C462.087 123.264 461.779 123.308 461.525 123.178L454.225 119.429C453.468 119.04 452.549 119.166 451.925 119.745C451.301 120.324 451.106 121.231 451.438 122.015L455.006 130.361C455.115 130.617 455.056 130.913 454.857 131.108L448.225 137.597C447.596 138.213 447.438 139.165 447.834 139.951C448.229 140.737 449.089 141.177 449.958 141.038L458.78 139.63C459.071 139.583 459.357 139.731 459.489 139.993L463.483 147.982C463.876 148.771 464.734 149.214 465.605 149.078C466.475 148.943 467.157 148.258 467.291 147.388L468.703 138.212C468.745 137.937 468.952 137.717 469.223 137.656L478.101 135.692C478.926 135.497 479.541 134.808 479.643 133.967Z" fill="#919597"/>
<path d="M212.672 250.167C212.596 249.638 212.2 249.212 211.678 249.097L206.609 247.996C206.432 247.957 206.298 247.811 206.276 247.632L205.576 242.079C205.5 241.551 205.104 241.126 204.583 241.013C204.061 240.9 203.525 241.122 203.236 241.57L203.229 241.583L200.296 246.333C200.201 246.487 200.02 246.564 199.843 246.526L194.772 245.424C194.246 245.31 193.705 245.537 193.418 245.992C193.131 246.447 193.16 247.033 193.49 247.458L197.03 251.977C197.138 252.116 197.15 252.306 197.061 252.458L194.065 257.503C193.781 257.982 193.839 258.589 194.209 259.005C194.579 259.421 195.176 259.55 195.684 259.324L200.846 257.026C201.016 256.95 201.215 256.994 201.338 257.133L205.08 261.364C205.449 261.782 206.045 261.913 206.555 261.688C207.065 261.463 207.371 260.934 207.31 260.38L206.679 254.543C206.66 254.369 206.75 254.2 206.906 254.119L212.011 251.472C212.483 251.219 212.747 250.698 212.672 250.167Z" fill="#919597"/>
<path d="M145.906 142.624C145.836 142.143 145.476 141.754 145 141.649L140.382 140.646C140.221 140.611 140.099 140.478 140.079 140.315L139.442 135.256C139.372 134.775 139.011 134.388 138.536 134.285C138.062 134.182 137.573 134.384 137.31 134.793L137.303 134.804L134.631 139.132C134.545 139.272 134.38 139.342 134.219 139.307L129.599 138.304C129.12 138.199 128.627 138.406 128.366 138.821C128.105 139.236 128.131 139.77 128.432 140.157L131.656 144.273C131.755 144.399 131.766 144.573 131.684 144.711L128.956 149.307C128.697 149.743 128.75 150.297 129.087 150.676C129.424 151.054 129.967 151.172 130.431 150.965L135.133 148.872C135.287 148.804 135.469 148.843 135.581 148.97L138.99 152.824C139.325 153.205 139.869 153.324 140.334 153.119C140.798 152.915 141.076 152.433 141.021 151.928L140.446 146.611C140.429 146.452 140.511 146.298 140.653 146.224L145.303 143.813C145.733 143.582 145.974 143.108 145.906 142.624Z" fill="#919597"/>
<rect x="573.547" y="129.788" width="19.8504" height="19.8504" rx="4.28824" transform="rotate(22.205 573.547 129.788)" fill="#919597"/>
<rect x="291.832" y="298" width="18.0829" height="18.0829" rx="4.28824" transform="rotate(22.205 291.832 298)" fill="#919597"/>
<rect x="448" y="60.4938" width="10.8232" height="10.8232" rx="2.14412" transform="rotate(-24.5316 448 60.4938)" fill="#919597"/>
<rect x="139" y="298.094" width="9.85951" height="9.85951" rx="2.14412" transform="rotate(-24.5316 139 298.094)" fill="#919597"/>
<rect x="119.004" y="259.486" width="10.4856" height="10.4856" rx="4.28824" transform="rotate(-15.0691 119.004 259.486)" fill="#919597"/>
<rect x="356" y="27.7261" width="10.4856" height="10.4856" rx="4.28824" transform="rotate(-15.0691 356 27.7261)" fill="#919597"/>
<rect x="441" y="25.132" width="32.6814" height="32.6814" rx="2.14412" transform="rotate(-27.5818 441 25.132)" fill="#919597"/>
<rect x="194" y="303.785" width="29.7715" height="29.7715" rx="2.14412" transform="rotate(-27.5818 194 303.785)" fill="#919597"/>
<rect x="591" y="21.132" width="32.6814" height="32.6814" rx="2.14412" transform="rotate(-27.5818 591 21.132)" fill="#919597"/>
<rect x="345.77" y="128.123" width="29.7715" height="29.7715" rx="2.14412" transform="rotate(-27.5818 345.77 128.123)" fill="#919597"/>
<circle cx="396.636" cy="113.932" r="2.50358" fill="#919597"/>
<ellipse cx="155" cy="231.5" rx="3" ry="2.5" fill="#919597"/>
<circle cx="317.504" cy="153.504" r="2.50358" fill="#919597"/>
<ellipse cx="102" cy="268" rx="3" ry="2" fill="#919597"/>
<circle cx="488.996" cy="152.851" r="2.50358" fill="#919597"/>
<circle cx="240" cy="268" r="2" fill="#919597"/>
<circle cx="215.504" cy="198.504" r="2.50358" fill="#919597"/>
<circle cx="94.5" cy="323.5" r="2.5" fill="#919597"/>
<circle cx="628.636" cy="214.075" r="2.50358" fill="#919597"/>
<circle cx="366.5" cy="323.5" r="2.5" fill="#919597"/>
<circle cx="628.636" cy="125.615" r="2.50358" fill="#919597"/>
<ellipse cx="270.5" cy="158" rx="2.5" ry="2" fill="#919597"/>
<circle cx="595.255" cy="82.22" r="4.17263" fill="#919597"/>
<ellipse cx="414.5" cy="217" rx="3.5" ry="4" fill="#919597"/>
<circle cx="97.0143" cy="222.014" r="8.40622" stroke="#919597" stroke-width="3.21618"/>
<circle cx="29.5" cy="313.5" r="7.89191" stroke="#919597" stroke-width="3.21618"/>
<circle cx="687.014" cy="92.0143" r="8.40622" stroke="#919597" stroke-width="3.21618"/>
<path d="M218.392 140C218.392 144.002 214.942 147.392 210.5 147.392C206.058 147.392 202.608 144.002 202.608 140C202.608 135.998 206.058 132.608 210.5 132.608C214.942 132.608 218.392 135.998 218.392 140Z" stroke="#919597" stroke-width="3.21618"/>
<path fill-rule="evenodd" clip-rule="evenodd" d="M733.944 317.096C746.459 317.096 756.604 306.95 756.604 294.435C756.604 281.92 746.459 271.775 733.944 271.775C721.429 271.775 711.283 281.92 711.283 294.435C711.283 306.95 721.429 317.096 733.944 317.096ZM733.944 327.816C752.379 327.816 767.325 312.871 767.325 294.435C767.325 275.999 752.379 261.054 733.944 261.054C715.508 261.054 700.562 275.999 700.562 294.435C700.562 312.871 715.508 327.816 733.944 327.816Z" fill="#919597"/>
<path fill-rule="evenodd" clip-rule="evenodd" d="M484.5 322.279C495.26 322.279 504.279 313.365 504.279 302C504.279 290.635 495.26 281.721 484.5 281.721C473.74 281.721 464.721 290.635 464.721 302C464.721 313.365 473.74 322.279 484.5 322.279ZM484.5 333C501.345 333 515 319.121 515 302C515 284.879 501.345 271 484.5 271C467.655 271 454 284.879 454 302C454 319.121 467.655 333 484.5 333Z" fill="#919597"/>
</svg>
